<?xml version="1.0" encoding="UTF-8"?>
<svg id="b" data-name="Layer_2" xmlns="http://www.w3.org/2000/svg" width="638.679" height="165.165" viewBox="0 0 638.679 165.165">
  <g id="c" data-name="Layer_1">
    <g>
      <path d="M51.253,49.59c-1.092-.818-2.319-1.057-3.683-.716-1.365.342-2.592.836-3.683,1.483-1.092.649-2.25,1.961-3.478,3.938-1.228,1.979-2.217,4.45-2.967,7.417-.751,2.967-1.125,5.849-1.125,8.645s.374,6.583,1.125,11.355c.75,4.774,1.432,8.475,2.046,11.1.614,2.626.699,5.013.256,7.161-.444,2.148-1.212,3.138-2.302,2.966-1.092-.169-2.626-1.074-4.604-2.711-1.979-1.637-3.667-4.688-5.064-9.156-1.399-4.466-2.097-9.325-2.097-14.578s.392-10.349,1.176-15.294c.783-4.944,2.097-9.309,3.938-13.094,1.842-3.785,3.29-6.496,4.348-8.133,1.057-1.637.972-2.949-.256-3.939-1.228-.988-2.984-1.312-5.269-.972-2.286.342-4.127,1.33-5.524,2.967-1.398,1.637-2.864,4.263-4.399,7.877-1.534,3.616-2.608,8.066-3.222,13.351-.614,5.286-.683,10.554-.205,15.805.476,5.253,1.09,9.685,1.841,13.299.75,3.616,2.199,7.076,4.348,10.383,2.148,3.309,4.757,6.36,7.826,9.156,3.069,2.797,5.678,5.166,7.826,7.11,2.148,1.944,4.381,5.388,6.701,10.333,2.317,4.945,4.159,9.225,5.524,12.839,1.364,3.615,2.131,6.905,2.302,9.872.169,2.967-.444,5.269-1.841,6.905-1.398,1.637-3.7,2.711-6.905,3.223-3.207.512-5.575.103-7.11-1.228s-2.542-3.973-3.018-7.929c-.478-3.955-1.637-8.883-3.478-14.783-1.841-5.898-4.297-9.599-7.366-11.1-3.069-1.499-5.524-2.982-7.366-4.45-1.841-1.466-4.895-6.563-9.156-15.294-4.263-8.729-6.394-18.601-6.394-29.616s.681-19.726,2.046-26.138c1.364-6.41,2.967-12.327,4.808-17.749,1.842-5.422,4.604-9.361,8.287-11.816s9.121-3.683,16.317-3.683,15.857.649,25.984,1.944c10.128,1.296,18.021,3.104,23.683,5.422,5.66,2.319,9.649,4.297,11.969,5.934,2.318,1.637,4.773,5.337,7.366,11.1,2.591,5.764,4.279,11.765,5.064,18.005.783,6.241,1.33,13.795,1.637,22.66.307,8.867-.086,16.353-1.176,22.455-1.092,6.104-2.626,10.64-4.604,13.606-1.979,2.966-4.127,5.508-6.445,7.621-2.319,2.115-5.013,4.332-8.082,6.65-3.069,2.319-5.371,4.467-6.905,6.445-1.535,1.979-2.302,4.281-2.302,6.905s.238,5.508.716,8.645c.476,3.138.562,5.933.255,8.389-.307,2.455-2.148,3.938-5.524,4.45-3.376.511-6.225-1.295-8.542-5.423-2.32-4.125-3.394-8.813-3.223-14.066.169-5.251.87-9.701,2.097-13.35,1.228-3.647,3.683-6.614,7.366-8.9,3.683-2.284,7.059-4.159,10.128-5.626,3.069-1.466,5.831-3.529,8.286-6.189,2.455-2.66,3.99-5.541,4.604-8.645.614-3.103.921-6.888.921-11.355v-14.578c0-5.251-.394-10.093-1.177-14.527-.785-4.433-1.245-8.302-1.381-11.611-.138-3.307-.972-5.029-2.506-5.166-1.535-.136-2.302.035-2.302.511s.153,4.179.46,11.1c.307,6.923.46,14.578.46,22.967s-.24,13.981-.716,16.777c-.478,2.797-1.245,4.928-2.302,6.394-1.058,1.468-2.66,2.934-4.808,4.399-2.148,1.467-4.45,2.695-6.905,3.683-2.456.989-5.304,1.57-8.542,1.739-3.24.171-5.388-.477-6.445-1.944-1.058-1.466-.051-3.273,3.018-5.422,3.069-2.148,5.591-3.801,7.57-4.962,1.977-1.159,3.581-2.795,4.808-4.91,1.228-2.113,1.926-4.246,2.097-6.394.169-2.148.255-4.875.255-8.184s-.086-6.358-.255-9.156c-.171-2.796-.409-5.507-.716-8.133-.307-2.625-.767-4.501-1.381-5.626-.614-1.125-1.296-1.448-2.046-.972-.751.478-1.125,1.45-1.125,2.916v9.105c0,4.604-.086,9.14-.256,13.606-.171,4.468-.938,7.435-2.302,8.9-1.365,1.467-3.427,2.524-6.189,3.171-2.762.649-5.371.818-7.826.511-2.456-.307-4.911-1.772-7.366-4.399-2.455-2.625-3.836-6.24-4.143-10.844-.307-4.604-.307-8.235,0-10.895.307-2.66.852-5.218,1.637-7.673.783-2.455,2.847-5.148,6.189-8.082,1.568-1.704,1.807-2.967.716-3.785Z" fill="#d2ff2e"/>
      <path d="M147.109,66.981c-.683-.136-1.501-.272-2.455-.409-.956-.136-1.91.273-2.864,1.228s-1.979,1.979-3.069,3.069c-1.092,1.092-2.115,2.456-3.069,4.092-.956,1.637-1.979,3.616-3.069,5.934-1.091,2.319-1.841,4.229-2.25,5.729-.409,1.501-.614,4.092-.614,7.775s-.342,5.662-1.023,5.934c-.683.273-1.637.409-2.864.409s-2.729-.205-4.501-.614c-1.774-.409-2.729-1.568-2.864-3.479-.138-1.908-.138-3.614,0-5.115.136-1.5.954-3.205,2.455-5.115,1.5-1.908,1.909-2.727,1.228-2.455-.683.273-2.046.342-4.092.205-2.046-.136-3.683-1.228-4.911-3.273-1.228-2.046-1.706-3.955-1.432-5.729.271-1.773,1.637-3.41,4.092-4.911,2.456-1.499,3.274-2.25,2.456-2.25s-2.251-.409-4.297-1.228-3.207-1.432-3.478-1.841c-.273-.409-.409-1.5-.409-3.274s1.159-3.341,3.478-4.706c2.318-1.364,5.182-2.046,8.593-2.046s6.614.273,9.616.818c3,.547,5.387,1.092,7.161,1.637,1.773.546,3.614,1.501,5.524,2.864,1.909,1.365,4.092,3.411,6.547,6.138-1.91.546-3.207.751-3.888.614ZM151.406,102.172c.818-.954,1.363-1.704,1.637-2.25.271-.545.614-1.228,1.023-2.046s.614-1.773.614-2.865-.342-2.318-1.023-3.683c-.683-1.364-1.841-2.455-3.478-3.274-1.637-.818-3.207-.954-4.706-.409-1.501.547-1.841,1.228-1.023,2.046s1.432,1.841,1.841,3.069.272,2.25-.409,3.069c-.683.818-1.501,1.228-2.455,1.228s-1.161.546-.614,1.637c.545,1.092.476,2.25-.205,3.478-.683,1.228-1.433,1.501-2.251.818-.818-.681-1.706-.136-2.66,1.637-.956,1.774-2.046,2.319-3.273,1.637-1.228-.681-1.774-2.456-1.637-5.32.136-2.864.272-5.66.409-8.389.136-2.727,1.159-6.343,3.069-10.844,1.909-4.501,3.75-7.501,5.524-9.002,1.772-1.5,3.069-2.113,3.887-1.842.818.273,2.113.342,3.887.205,1.773-.136,3.136-1.023,4.092-2.66.954-1.637,1.09-3.136.409-4.501-.683-1.363-1.91-2.66-3.683-3.887-1.774-1.228-3.069-3.614-3.888-7.161-.818-3.545-.751-7.023.205-10.435.954-3.41,3.683-5.796,8.184-7.161,4.501-1.363,8.916-1.568,13.248-.614,4.33.956,7.535,2.593,9.616,4.911,2.08,2.319,3.597,4.91,4.552,7.774.955,2.865,1.228,5.389.819,7.57-.409,2.184-1.161,4.092-2.251,5.729-1.092,1.637-1.841,2.864-2.25,3.683-.409.818-.069,2.25,1.023,4.296,1.09,2.046,2.318,3.342,3.683,3.888,1.363.546,3.683.682,6.956.409,3.274-.272,6.547-.341,9.821-.205,3.274.137,5.865.818,7.775,2.046,1.908,1.228,3.341,2.729,4.297,4.501.954,1.774,2.112,3.069,3.478,3.888,1.363.818,3.069,1.774,5.115,2.864,2.046,1.092,3,2.729,2.864,4.911-.138,2.184-1.432,3.478-3.887,3.887-2.456.409-3.957.683-4.502.818-.547.138-.683.887-.409,2.251.271,1.365,0,3.207-.818,5.524-.818,2.319-2.184,3.547-4.092,3.683-1.91.137-3.138-.272-3.683-1.228-.547-.955-.752-2.387-.614-4.297.136-1.909-.613-2.66-2.25-2.25-1.637.409-3.002.069-4.092-1.023-1.092-1.09-1.365-2.456-.819-4.092.545-1.637,1.637-2.318,3.274-2.046,1.637.273,2.795-.34,3.478-1.841.681-1.5.75-2.932.205-4.297-.547-1.363-1.774-2.25-3.683-2.66-1.91-.409-4.025-.272-6.343.409-2.319.683-4.365,1.365-6.138,2.046-1.774.683-3.273,1.841-4.501,3.479-1.228,1.637-1.841,3.001-1.841,4.092v3.273c0,1.092.136,2.593.409,4.501.271,1.91,1.159,3.82,2.66,5.729,1.5,1.91,3.069,4.025,4.706,6.342,1.637,2.32,3,4.501,4.092,6.547,1.09,2.046,1.977,5.184,2.66,9.412.681,4.229,1.159,9.14,1.432,14.731.272,5.594.205,9.48-.205,11.663-.409,2.183-.887,3.751-1.432,4.705-.546.956-1.91,1.637-4.092,2.046-2.184.41-4.57.819-7.161,1.229-2.593.409-5.32.682-8.184.818s-6.071.204-9.616.204h-12.481c-4.774,0-8.321-.409-10.639-1.228-2.319-.818-4.161-2.522-5.524-5.115-1.365-2.591-1.91-5.455-1.637-8.593.272-3.137.614-6.615,1.023-10.435.409-3.819,1.295-7.979,2.66-12.481,1.363-4.501,2.591-8.456,3.683-11.867,1.09-3.41,2.182-6.206,3.273-8.389,1.09-1.909,2.046-3.341,2.865-4.297ZM158.567,10.306c.409,0,1.568.069,3.478.205,1.909.138,3.683.409,5.32.818,1.637.409,3.069,1.023,4.296,1.841s2.046,1.979,2.455,3.479c.41,1.501.477,2.729.205,3.683-.273.956-1.091,1.91-2.455,2.865-1.365.956-3.138,1.774-5.319,2.455-2.184.683-3.957,1.023-5.32,1.023s-2.864-.067-4.501-.205c-1.637-.136-3.002-.272-4.092-.409-1.092-.136-2.319-.545-3.683-1.228-1.365-.681-2.25-1.773-2.66-3.274-.409-1.499-.342-3.069.205-4.706.545-1.637,1.228-2.932,2.046-3.888.818-.954,2.591-1.841,5.32-2.66h4.706ZM155.498,16.649c-.273.409-.273,1.092,0,2.046.272.956,1.023,1.57,2.25,1.841,1.228.273,2.66.138,4.297-.409,1.637-.545,2.522-1.023,2.66-1.432.136-.409-.205-1.023-1.023-1.841s-1.501-1.295-2.046-1.432c-.547-.136-1.023-.205-1.432-.205s-1.161.273-2.25.818c-1.365,0-2.184.205-2.456.614ZM189.052,61.047c.545-.271,1.228-.75,2.046-1.432.818-.681,2.182-1.432,4.092-2.25,1.909-.818,4.297-2.318,7.161-4.501,2.864-2.182,5.115-3.887,6.752-5.115,1.637-1.228,4.159-2.113,7.57-2.66,3.409-.545,6.205-.75,8.389-.614,2.182.138,4.228.547,6.138,1.228,1.909.683,2.796,1.979,2.66,3.888-.138,1.91-.818,3.273-2.046,4.092s-2.319,1.432-3.273,1.841c-.956.41-.818,1.296.409,2.66,1.228,1.365,1.841,2.933,1.841,4.706s-.342,3.138-1.022,4.092c-.683.956-1.774,1.637-3.274,2.046-1.501.409-1.773.956-.818,1.637.955.683,1.364,1.91,1.228,3.683-.137,1.774-.887,3.138-2.25,4.092-1.365.956-2.593,1.365-3.683,1.228-1.092-.136-2.115-.614-3.069-1.432-.956-.818-2.046-1.704-3.273-2.66-1.228-.954-2.524-1.978-3.888-3.069-1.365-1.09-2.66-2.046-3.888-2.865s-2.388-1.228-3.478-1.228h-14.527c-1.501,0-2.729-.409-3.683-1.228-.956-.818-1.023-2.046-.205-3.683,2.182-1.363,3.545-2.182,4.092-2.455Z" fill="#d2ff2e"/>
      <path d="M267.517,138.592v16.368c0,3.547-.068,5.815-.204,6.803-.138.99-.869,1.91-2.199,2.763-1.33.854-2.593.854-3.785,0-1.194-.853-1.791-1.637-1.791-2.354s-.068-1.857-.204-3.427c-.138-1.568-.205-2.847-.205-3.836s-.955-1.756-2.864-2.302c-1.91-.546-3.376-1.108-4.398-1.688-1.023-.578-2.337-1.79-3.938-3.632-1.604-1.841-3.223-4.177-4.859-7.007-1.637-2.83-2.455-7.348-2.455-13.555s.22-10.997.664-14.373c.443-3.376,1.62-6.837,3.53-10.384,1.908-3.545,3.818-5.882,5.729-7.007,1.908-1.125,4.108-2.046,6.599-2.762,2.488-.716,3.733-2.983,3.733-6.803v-9.31c0-2.386-.58-4.432-1.739-6.138-1.16-1.704-2.762-3.888-4.808-6.547s-3.599-4.911-4.655-6.752c-1.058-1.841-2.097-4.67-3.12-8.491-1.022-3.819-2.199-7.008-3.529-9.565-1.329-2.558-2.132-4.961-2.403-7.212-.273-2.251-.343-5.218-.205-8.9.136-3.683-.529-6.154-1.995-7.417-1.467-1.261-2.337-2.318-2.608-3.171-.273-.852-.409-1.637-.409-2.353s.425-1.773,1.278-3.171c.853-1.397,1.944-2.097,3.274-2.097s2.659.068,3.989.205c1.33.137,2.728-.358,4.194-1.483,1.466-1.125,2.864-1.978,4.194-2.558,1.33-.579,2.643-.579,3.938,0,1.295.58,2.028,1.57,2.2,2.967.169,1.398-.189,2.813-1.074,4.246-.888,1.432-1.109,2.353-.665,2.762.442.409,1.33,1.399,2.659,2.967,1.33,1.57,2.216,3.274,2.66,5.115.442,1.841-.086,3.529-1.586,5.064-1.501,1.535-3.12,2.302-4.859,2.302s-2.608,1.348-2.608,4.041.512,5.593,1.534,8.695c1.023,3.104,2.113,5.713,3.274,7.826,1.158,2.115,2.558,4.161,4.194,6.138,1.637,1.979,2.897,3.325,3.785,4.041.885.716,1.841.716,2.864,0,1.022-.716,1.312-1.841.869-3.376-.444-1.534-1.04-3.29-1.79-5.268-.751-1.978-.972-4.875-.665-8.696.307-3.819,1.125-6.292,2.455-7.417,1.33-1.125,2.949-1.977,4.859-2.557,1.908-.579,4.466-.238,7.673,1.023,3.205,1.263,5.763,3.598,7.673,7.007,1.908,3.411,2.948,6.173,3.12,8.287.169,2.115-.035,3.803-.614,5.064-.58,1.263-1.468,2.608-2.66,4.041-1.193,1.433-1.943,2.353-2.25,2.762s.136.751,1.33,1.023c1.192.273,2.812.138,4.859-.409,2.046-.545,3.954-1.312,5.729-2.302,1.772-.988,3.461-1.704,5.063-2.148,1.602-.442,3.223-.665,4.859-.665s3.768.649,6.395,1.943c2.624,1.296,4.604,2.865,5.933,4.706,1.33,1.841,2.216,4.946,2.66,9.31.442,4.365.067,6.974-1.125,7.826-1.194.854-1.041,1.91.46,3.171,1.499,1.263,2.455,2.882,2.864,4.859.409,1.979-.478,3.104-2.659,3.376-2.184.273-4.093.069-5.729-.614-1.637-.681-2.813-1.806-3.529-3.376-.716-1.568-1.449-1.791-2.199-.665-.751,1.125-2.729,1.417-5.934.87-3.206-.545-4.808-1.602-4.808-3.171s.731-2.847,2.199-3.836c1.466-.988,2.778-1.619,3.938-1.893,1.159-.271,1.295-.698.409-1.279-.888-.579-1.842-1.21-2.864-1.892-1.023-.681-1.161-1.67-.409-2.967.749-1.295,1.772-2.011,3.068-2.148,1.295-.136,2.54-.205,3.734-.205s1.499-.205.921-.614c-.58-.409-1.535-.834-2.864-1.279-1.33-.443-2.798-.665-4.399-.665s-3.359.358-5.269,1.074c-1.91.716-4.194,2.199-6.854,4.45-2.66,2.25-4.144,4.434-4.45,6.547-.308,2.115-.599,4.161-.87,6.138-.273,1.979-.495,3.751-.665,5.32-.171,1.57.272,2.78,1.33,3.632,1.057.854,2.317,2.337,3.785,4.45,1.466,2.115,2.489,4.025,3.069,5.729.578,1.706,1.022,4.11,1.33,7.212.307,3.104.374,6.138.204,9.104-.171,2.967-.7,5.576-1.586,7.826-.887,2.25-1.756,4.161-2.608,5.729-.854,1.569-1.943,3.342-3.273,5.319-1.33,1.979-2.081,4.025-2.251,6.138-.171,2.115-.256,4.587-.256,7.417v6.139c0,1.263-.204,2.183-.613,2.762-.409.58-1.279.938-2.608,1.074-1.33.138-2.66-.358-3.99-1.483s-2.37-2.267-3.12-3.427c-.751-1.159-1.416-3.428-1.995-6.804-.58-3.376-.938-5.847-1.074-7.417-.137-1.568.153-3.256.87-5.063.716-1.807,2.028-2.796,3.938-2.967,1.908-.169,3.683-1.586,5.319-4.246s2.676-6.819,3.12-12.481c.443-5.66.29-9.343-.46-11.048-.751-1.704-1.995-3.12-3.734-4.246-1.739-1.125-3.649-1.688-5.729-1.688s-4.741.427-7.979,1.279c-3.24.854-5.951,2.626-8.133,5.32-2.184,2.695-3.496,5.304-3.938,7.826-.444,2.524-.376,5.132.204,7.826.579,2.695,1.381,4.604,2.404,5.729s1.978,1.979,2.864,2.558c.886.58,1.704,1.296,2.455,2.148.75.854,1.346,1.688,1.791,2.506.442.818.801,2.081,1.073,3.785Z" fill="#d2ff2e"/>
      <path d="M362.043,12.812c1.773-.307,4.194-.392,7.264-.256,3.069.138,5.813.905,8.235,2.302,2.42,1.399,4.518,2.797,6.291,4.194,1.773,1.399,2.745,3.018,2.916,4.859.169,1.841.169,3.616,0,5.32-.171,1.706-.495,3.171-.972,4.399-.479,1.228-1.041,2.234-1.688,3.018-.648.785-.324,1.877.972,3.274,1.295,1.398,2.66,2.558,4.093,3.478,1.432.921,2.387,2.081,2.864,3.479.477,1.398,0,2.166-1.433,2.302-1.432.137-2.711-.256-3.836-1.177-1.125-.92-2.575-2.233-4.348-3.938-1.774-1.704-3.069-1.159-3.888,1.637-.818,2.797-1.228,5.115-1.228,6.957s.409,3.854,1.228,6.036c.818,2.184,2.028,4.281,3.632,6.292,1.602,2.013,4.092,3.087,7.468,3.223,3.376.138,5.387-.801,6.036-2.813.647-2.011.731-4.706.256-8.082-.479-3.376.322-5.847,2.403-7.417,2.08-1.568,4.093-2.353,6.036-2.353s3.647.614,5.115,1.842c1.466,1.228,1.551,3.086.256,5.575-1.297,2.49-2.03,4.808-2.2,6.957-.171,2.148-.171,4.928,0,8.337.17,3.411-.393,5.9-1.688,7.468-1.296,1.569-3.394,3.035-6.292,4.399-2.899,1.365-5.405,1.279-7.519-.256-2.115-1.535-3.974-2.369-5.575-2.506-1.604-.136-3.054.562-4.348,2.097-1.297,1.535-2.013,3.376-2.148,5.524-.138,2.148-.138,5.933,0,11.355.136,5.422.527,8.833,1.176,10.23.647,1.398,2.028,4.178,4.144,8.337,2.113,4.161,3,7.554,2.66,10.179-.343,2.626-.905,5.729-1.688,9.31-.784,3.581-.854,6.378-.204,8.389.647,2.013,2.25,4.025,4.808,6.036,2.558,2.013,3.358,3.939,2.404,5.78-.956,1.842-3.938,2.763-8.951,2.763s-8.645-1.773-10.896-5.32c-2.25-3.545-3.206-6.632-2.864-9.258.341-2.625.988-5.335,1.943-8.133.955-2.796.137-5.354-2.455-7.673-2.593-2.317-4.774-3.392-6.547-3.222-1.774.171-3.376,1.023-4.809,2.558-1.432,1.534-2.644,3.462-3.631,5.78-.99,2.319-1.483,4.877-1.483,7.672s.578,5.422,1.738,7.878c1.159,2.455,1.739,4.843,1.739,7.161s-1.058,4.178-3.171,5.575c-2.115,1.398-5.1,2.184-8.951,2.353-3.854.171-6.104-.681-6.752-2.558-.649-1.875-.325-3.58.972-5.114,1.295-1.535,2.335-2.848,3.12-3.939.783-1.09.852-3.033.205-5.831-.649-2.795-1.212-5.66-1.688-8.593-.478-2.932-.394-5.404.256-7.417.647-2.011,1.448-3.938,2.404-5.78.954-1.841,2.573-4.159,4.859-6.957,2.284-2.795,4.381-5.507,6.291-8.133,1.908-2.625,3.188-5.865,3.836-9.719.647-3.852.732-7.177.256-9.974-.478-2.796-2.012-5.745-4.604-8.849-2.593-3.103-4.604-4.501-6.035-4.194-1.433.307-2.711,1.245-3.837,2.813-1.125,1.57-1.603,3.274-1.432,5.115.169,1.841.647,3.309,1.432,4.399.783,1.092,1.909,2.644,3.376,4.655,1.466,2.012,2.113,3.872,1.944,5.575-.171,1.706-.665,3.104-1.483,4.194-.818,1.092-1.859,1.944-3.12,2.558-1.263.614-2.389.614-3.376,0-.989-.614-1.245-1.55-.768-2.813.477-1.261.886-2.267,1.228-3.018.341-.75.103-2.062-.716-3.938-.818-1.875-1.79-3.274-2.916-4.194-1.125-.921-2.575-2.08-4.348-3.479-1.774-1.397-3.053-2.864-3.836-4.399-.785-1.534-.461-4.619.972-9.258,1.433-4.637,2.796-7.655,4.092-9.053,1.295-1.397,3.154-2.711,5.575-3.939,2.421-1.228,4.433-2.08,6.036-2.557,1.602-.477,2.727-1.261,3.376-2.353.647-1.09,1.21-2.865,1.688-5.32.477-2.455.717-4.143.717-5.064v-2.353c0-.647-.562-1.806-1.688-3.478-1.125-1.67-2.097-3.665-2.915-5.984-.818-2.318-1.144-4.722-.972-7.212.169-2.489.987-4.824,2.455-7.008,1.466-2.182,3.46-4.33,5.984-6.445,2.591-1.228,4.773-1.995,6.547-2.302ZM396.315,45.497c.954-.545,1.704-1.499,2.25-2.864.545-1.364.614-2.522.205-3.479-.409-.954-.956-1.704-1.637-2.25-.683-.545-.818-1.772-.409-3.683.409-1.909,1.022-3.614,1.841-5.115.818-1.5,1.295-2.386,1.433-2.66.136-.272-.614.205-2.251,1.432s-2.864,2.455-3.683,3.683c-.818,1.228-1.228,2.524-1.228,3.888s.204,2.455.614,3.273c.409.818.613,1.774.613,2.865s-.138,3.002-.409,5.729c.818,0,1.704-.271,2.66-.818ZM402.658,32.199c1.09-.681,2.25-1.228,3.478-1.637s2.455-1.363,3.683-2.864c1.229-1.5,1.842-3.273,1.842-5.32s-.204-3.136-.613-3.273c-.409-.136-.956.614-1.638,2.25s-1.773,3.069-3.273,4.297c-1.501,1.228-3.068,2.593-4.706,4.092-1.637,1.501-2.183,3.752-1.637,6.752.818-2.182,1.773-3.614,2.865-4.296ZM401.839,19.513c-.273-.409-.069-1.363.613-2.864.681-1.5,1.023-3,1.023-4.501s.271-2.864.818-4.092c.545-1.228.954-2.251,1.228-3.069.271-.818.886-.409,1.841,1.228.955,1.637,1.433,3.274,1.433,4.911s-.409,3.683-1.228,6.138-2.319,4.639-4.501,6.547c-.547-2.456-.956-3.888-1.228-4.297Z" fill="#d2ff2e"/>
      <path d="M414.626,59.103c0-1.432.067-2.864.205-4.296.136-1.432.545-2.625,1.228-3.581.681-.954,1.432-1.773,2.25-2.455.818-.681,1.159-3.274,1.023-7.775-.138-4.501-.138-8.013,0-10.537.136-2.522.716-4.944,1.739-7.263,1.022-2.318,1.943-3.41,2.762-3.274.818.138,1.671,1.296,2.558,3.479.886,2.183,1.568,5.626,2.046,10.332.477,4.706.716,7.775.716,9.207s.17,1.433.512,0c.341-1.432.75-3.512,1.228-6.24.477-2.727,1.159-5.729,2.046-9.002.886-3.273,1.842-4.911,2.865-4.911s2.182.547,3.478,1.637c1.295,1.092,1.704,2.557,1.228,4.399-.478,1.841-1.467,5.9-2.967,12.174-1.5,6.275-2.012,10.572-1.534,12.89.477,2.319.374,4.297-.307,5.934-.683,1.637-1.706,3.171-3.069,4.604-1.365,1.432-2.046,2.695-2.046,3.785s-.068,2.455-.204,4.092c-.138,1.637.033,3.887.511,6.751.477,2.865,1.5,5.491,3.069,7.877,1.568,2.388,3.341,4.365,5.319,5.934,1.978,1.569,4.568,2.626,7.775,3.171,3.205.547,5.66.751,7.365.614,1.704-.136,2.284-2.011,1.739-5.626-.547-3.614-2.148-8.491-4.808-14.629-2.66-6.138-3.82-11.627-3.479-16.471.34-4.841,1.67-11.048,3.989-18.619,2.318-7.57,5.422-12.548,9.31-14.936,3.888-2.386,8.286-3.103,13.197-2.148,4.91.956,8.864,2.421,11.866,4.399,3.001,1.979,5.423,7.025,7.264,15.141,1.842,8.117,2.693,15.209,2.558,21.278-.138,6.071-.307,10.094-.512,12.072-.204,1.979-.887,4.161-2.046,6.547-1.16,2.388-1.979,4.639-2.455,6.752-.478,2.115-.478,3.547,0,4.297.477.751,2.079,2.012,4.809,3.785,2.727,1.774,5.013,3.751,6.854,5.933,1.842,2.184,3.41,4.366,4.706,6.547,1.295,2.184,1.943,4.263,1.943,6.24s-.307,4.127-.92,6.445c-.614,2.319-1.264,3.478-1.944,3.478s-1.194-.614-1.534-1.841c-.342-1.228-.444-2.66-.307-4.297.136-1.637-.444-3.34-1.739-5.115-1.297-1.773-3.207-3.479-5.729-5.115-2.523-1.637-3.785-1.397-3.785.716v16.47c0,2.729.308,5.184.921,7.366.614,2.184,1.433,3.616,2.455,4.297,1.023.683,2.216,1.398,3.581,2.148,1.363.751,2.215,1.739,2.558,2.967.34,1.228.169,2.319-.512,3.274-.683.955-2.046,1.876-4.092,2.762-2.046.887-3.24,1.228-3.581,1.023-.342-.205-.989-1.023-1.943-2.456-.956-1.432-2.046-2.591-3.273-3.478-1.228-.886-1.842-.34-1.842,1.637s.103,3.854.307,5.626c.205,1.774.308,3.31.308,4.604s-.343,2.286-1.023,2.967-1.877,1.501-3.58,2.456c-1.706.955-3.376,1.16-5.014.613-1.637-.545-2.046-1.466-1.228-2.762.818-1.295,1.466-3.034,1.944-5.218.477-2.182.647-5.524.512-10.026-.138-4.501-3.411-11.867-9.821-22.097-6.411-10.23-10.946-15.345-13.606-15.345h-7.059c-2.046,0-4.569-.103-7.57-.307-3.002-.205-6.275-.852-9.82-1.943-3.547-1.09-6.174-2.625-7.878-4.604-1.705-1.978-3.309-4.501-4.808-7.57-1.501-3.069-2.524-6.752-3.069-11.049-.547-4.296-.818-10.399-.818-18.312-.547-2.182-.818-3.99-.818-5.422Z" fill="#d2ff2e"/>
      <path d="M551.915,66.981c-.683-.136-1.501-.272-2.456-.409-.955-.136-1.91.273-2.864,1.228s-1.979,1.979-3.068,3.069-2.115,2.456-3.069,4.092c-.956,1.637-1.979,3.616-3.069,5.934-1.092,2.319-1.841,4.229-2.25,5.729-.409,1.501-.614,4.092-.614,7.775s-.342,5.662-1.023,5.934c-.682.273-1.637.409-2.864.409s-2.729-.205-4.501-.614c-1.774-.409-2.729-1.568-2.864-3.479-.138-1.908-.138-3.614,0-5.115.136-1.5.954-3.205,2.455-5.115,1.499-1.908,1.908-2.727,1.228-2.455-.683.273-2.046.342-4.092.205-2.046-.136-3.683-1.228-4.91-3.273-1.229-2.046-1.706-3.955-1.433-5.729.271-1.773,1.637-3.41,4.092-4.911,2.455-1.499,3.273-2.25,2.455-2.25s-2.25-.409-4.296-1.228c-2.047-.818-3.207-1.432-3.479-1.841-.273-.409-.409-1.5-.409-3.274s1.159-3.341,3.479-4.706c2.317-1.364,5.182-2.046,8.593-2.046s6.614.273,9.616.818c3,.547,5.387,1.092,7.161,1.637,1.772.546,3.614,1.501,5.524,2.864,1.908,1.365,4.092,3.411,6.547,6.138-1.91.546-3.206.751-3.887.614ZM556.21,102.172c.818-.954,1.364-1.704,1.637-2.25.272-.545.614-1.228,1.023-2.046s.614-1.773.614-2.865-.343-2.318-1.023-3.683c-.683-1.364-1.842-2.455-3.479-3.274-1.637-.818-3.206-.954-4.706-.409-1.5.547-1.841,1.228-1.022,2.046s1.433,1.841,1.842,3.069.271,2.25-.409,3.069c-.683.818-1.501,1.228-2.456,1.228s-1.16.546-.613,1.637c.545,1.092.477,2.25-.205,3.478-.683,1.228-1.432,1.501-2.25.818-.818-.681-1.706-.136-2.66,1.637-.956,1.774-2.046,2.319-3.273,1.637-1.228-.681-1.774-2.456-1.637-5.32.136-2.864.271-5.66.409-8.389.136-2.727,1.158-6.343,3.068-10.844,1.909-4.501,3.75-7.501,5.524-9.002,1.772-1.5,3.069-2.113,3.888-1.842.818.273,2.113.342,3.888.205,1.772-.136,3.136-1.023,4.092-2.66.954-1.637,1.09-3.136.409-4.501-.683-1.363-1.91-2.66-3.683-3.887-1.774-1.228-3.069-3.614-3.888-7.161-.818-3.545-.751-7.023.205-10.435.954-3.41,3.683-5.796,8.184-7.161,4.501-1.363,8.916-1.568,13.248-.614,4.33.956,7.535,2.593,9.616,4.911,2.08,2.319,3.597,4.91,4.553,7.774.954,2.865,1.228,5.389.818,7.57-.409,2.184-1.161,4.092-2.251,5.729-1.092,1.637-1.841,2.864-2.25,3.683-.41.818-.069,2.25,1.022,4.296,1.09,2.046,2.317,3.342,3.683,3.888,1.364.546,3.684.682,6.957.409,3.273-.272,6.547-.341,9.82-.205,3.274.137,5.865.818,7.775,2.046,1.908,1.228,3.341,2.729,4.297,4.501.954,1.774,2.112,3.069,3.478,3.888,1.363.818,3.069,1.774,5.115,2.864,2.046,1.092,3,2.729,2.864,4.911-.138,2.184-1.432,3.478-3.887,3.887-2.456.409-3.957.683-4.502.818-.547.138-.683.887-.409,2.251.271,1.365,0,3.207-.818,5.524-.818,2.319-2.184,3.547-4.092,3.683-1.91.137-3.138-.272-3.683-1.228-.547-.955-.752-2.387-.614-4.297.136-1.909-.613-2.66-2.25-2.25-1.638.409-3.002.069-4.093-1.023-1.092-1.09-1.365-2.456-.818-4.092.545-1.637,1.637-2.318,3.273-2.046,1.638.273,2.796-.34,3.479-1.841.681-1.5.75-2.932.205-4.297-.547-1.363-1.774-2.25-3.684-2.66-1.91-.409-4.024-.272-6.342.409-2.319.683-4.366,1.365-6.139,2.046-1.774.683-3.273,1.841-4.501,3.479-1.228,1.637-1.842,3.001-1.842,4.092v3.273c0,1.092.136,2.593.409,4.501.272,1.91,1.159,3.82,2.66,5.729,1.499,1.91,3.069,4.025,4.706,6.342,1.637,2.32,3,4.501,4.092,6.547,1.09,2.046,1.978,5.184,2.66,9.412.681,4.229,1.158,9.14,1.432,14.731.271,5.594.205,9.48-.204,11.663s-.888,3.751-1.433,4.705c-.547.956-1.91,1.637-4.092,2.046-2.184.41-4.57.819-7.161,1.229-2.593.409-5.319.682-8.185.818-2.864.137-6.07.204-9.616.204h-12.48c-4.774,0-8.321-.409-10.64-1.228-2.319-.818-4.16-2.522-5.523-5.115-1.365-2.591-1.91-5.455-1.637-8.593.271-3.137.613-6.615,1.022-10.435.409-3.819,1.295-7.979,2.66-12.481,1.363-4.501,2.591-8.456,3.683-11.867,1.09-3.41,2.182-6.206,3.273-8.389,1.09-1.909,2.046-3.341,2.864-4.297ZM563.372,10.306c.409,0,1.568.069,3.479.205,1.908.138,3.683.409,5.319.818s3.069,1.023,4.297,1.841,2.046,1.979,2.455,3.479c.409,1.501.477,2.729.205,3.683-.273.956-1.092,1.91-2.455,2.865-1.365.956-3.138,1.774-5.32,2.455-2.184.683-3.956,1.023-5.319,1.023s-2.864-.067-4.501-.205c-1.637-.136-3.002-.272-4.093-.409-1.092-.136-2.319-.545-3.683-1.228-1.365-.681-2.25-1.773-2.659-3.274-.409-1.499-.343-3.069.204-4.706.545-1.637,1.228-2.932,2.046-3.888.818-.954,2.591-1.841,5.32-2.66h4.705ZM560.303,16.649c-.273.409-.273,1.092,0,2.046.271.956,1.022,1.57,2.25,1.841,1.228.273,2.66.138,4.297-.409,1.637-.545,2.522-1.023,2.66-1.432.136-.409-.205-1.023-1.023-1.841s-1.501-1.295-2.046-1.432c-.547-.136-1.023-.205-1.433-.205s-1.16.273-2.25.818c-1.365,0-2.184.205-2.455.614ZM593.858,61.047c.545-.271,1.228-.75,2.046-1.432.818-.681,2.182-1.432,4.092-2.25,1.908-.818,4.297-2.318,7.161-4.501,2.864-2.182,5.115-3.887,6.752-5.115,1.637-1.228,4.159-2.113,7.57-2.66,3.409-.545,6.205-.75,8.389-.614,2.182.138,4.228.547,6.138,1.228,1.909.683,2.796,1.979,2.66,3.888-.138,1.91-.818,3.273-2.046,4.092s-2.319,1.432-3.273,1.841c-.956.41-.818,1.296.409,2.66,1.228,1.365,1.841,2.933,1.841,4.706s-.342,3.138-1.022,4.092c-.683.956-1.774,1.637-3.274,2.046-1.501.409-1.773.956-.818,1.637.955.683,1.364,1.91,1.228,3.683-.137,1.774-.887,3.138-2.25,4.092-1.365.956-2.593,1.365-3.683,1.228-1.092-.136-2.115-.614-3.069-1.432-.956-.818-2.046-1.704-3.273-2.66-1.228-.954-2.524-1.978-3.888-3.069-1.365-1.09-2.66-2.046-3.888-2.865s-2.388-1.228-3.478-1.228h-14.527c-1.501,0-2.729-.409-3.683-1.228-.956-.818-1.023-2.046-.205-3.683,2.183-1.363,3.546-2.182,4.093-2.455Z" fill="#d2ff2e"/>
    </g>
  </g>
</svg>
